<svg width="153" height="53" viewBox="0 0 153 53" fill="none" xmlns="http://www.w3.org/2000/svg">
<g clip-path="url(#clip0_247_3474)">
<mask id="mask0_247_3474" style="mask-type:luminance" maskUnits="userSpaceOnUse" x="-30" y="-57" width="213" height="167">
<path d="M-29.1737 -56.0731H182.174V109.073H-29.1737V-56.0731Z" fill="white"/>
</mask>
<g mask="url(#mask0_247_3474)">
<path d="M7.65946 49.545C7.65946 49.545 6.6238 48.0786 6.6238 47.812C6.6238 47.812 6.718 47.2596 6.6238 47.2596C6.6238 47.2596 6.46369 47.4312 6.46369 47.5073L6.2849 47.3263C6.2849 47.3263 6.0023 47.6218 5.73865 48.3738C5.73865 48.3738 5.0982 48.9834 4.35422 48.8023C4.35422 48.8023 3.62918 47.9547 3.43171 48.0406C3.43171 48.0406 3.21502 48.5738 3.23397 48.774C3.23397 48.774 2.45236 51.0305 2.07556 51.2304C2.07556 51.2304 0.00424982 51.9064 0.333813 52.5921C0.333813 52.5921 1.95334 53.8682 4.36382 51.9064C4.36382 51.9064 8.11124 50.5736 7.65946 49.545Z" fill="#DB0080"/>
</g>
<mask id="mask1_247_3474" style="mask-type:luminance" maskUnits="userSpaceOnUse" x="-30" y="-57" width="213" height="167">
<path d="M-29.1737 -56.0731H182.174V109.073H-29.1737V-56.0731Z" fill="white"/>
</mask>
<g mask="url(#mask1_247_3474)">
<path d="M13.9117 49.4308C13.9117 49.4308 14.0436 48.869 14.1001 48.8784C14.1001 48.8784 14.0342 48.7262 13.667 48.8118C13.667 48.8118 13.3658 49.3641 13.3941 49.6308C13.3941 49.6308 11.8687 50.1545 11.699 48.9642C11.699 48.9642 11.379 48.4785 11.0399 48.5832C11.0399 48.5832 10.9932 48.1264 10.6492 48.1738C10.6492 48.1738 10.7575 48.7071 10.8045 48.7071C10.8045 48.7071 10.0512 50.2854 7.85499 51.221C7.85499 51.221 6.92847 51.8413 6.88738 52.1919C6.80839 52.8646 7.91129 52.8168 9.52415 52.6681C9.52415 52.6681 13.6857 52.3446 14.4393 51.7539C14.4393 51.7539 14.3547 50.8208 14.2274 50.8019C14.2274 50.8019 14.0815 49.4308 13.9117 49.4308Z" fill="#DB0080"/>
</g>
<mask id="mask2_247_3474" style="mask-type:luminance" maskUnits="userSpaceOnUse" x="-30" y="-57" width="213" height="167">
<path d="M-29.1737 -56.0731H182.174V109.073H-29.1737V-56.0731Z" fill="white"/>
</mask>
<g mask="url(#mask2_247_3474)">
<path d="M5.39016 14.8998C5.39016 14.8998 6.43542 13.9429 12.1274 14.4141C12.1274 14.4141 12.1132 13.8857 12.2405 13.7716C12.2405 13.7716 12.3958 13.2572 12.3817 13.1288L12.212 12.7575C12.212 12.7575 12.5301 12.6217 12.6008 12.6288C12.6008 12.6288 12.6219 12.3362 12.6008 12.3003C12.5794 12.2645 12.2475 12.4288 12.0852 12.3716C12.0852 12.3716 10.8046 11.0769 11.3695 10.2198C11.3695 10.2198 11.3653 10.2201 11.3575 10.2204C11.5857 9.89925 12.4772 8.44532 13.4902 7.92964H13.0806C11.9459 8.40107 11.0891 10.2198 11.0891 10.2198C11.0872 10.2247 11.0864 10.2287 11.0848 10.2336C10.261 10.2722 7.86949 10.3739 6.90374 10.3083C6.76445 9.97319 7.79824 8.48688 8.89313 7.92964H8.48351C7.34886 8.40107 6.49199 10.2198 6.49199 10.2198C6.49199 10.2198 3.20089 11.3861 5.29142 14.4141C5.29142 14.4141 5.27728 14.7141 5.39016 14.8998Z" fill="#DB0080"/>
</g>
<mask id="mask3_247_3474" style="mask-type:luminance" maskUnits="userSpaceOnUse" x="-30" y="-57" width="213" height="167">
<path d="M-29.1737 -56.0731H182.174V109.073H-29.1737V-56.0731Z" fill="white"/>
</mask>
<g mask="url(#mask3_247_3474)">
<path d="M3.29989 46.6504L5.75734 45.8363C5.75734 45.8363 4.83937 41.5943 4.93117 41.1658C4.93117 41.1658 4.96639 37.9093 3.79437 36.267C3.79437 36.267 3.56808 35.4812 4.33075 34.6244C4.33075 34.6244 8.14914 30.0063 8.35622 29.5303C8.35622 29.5303 9.18507 34.8052 9.42977 35.2624C9.42977 35.2624 9.8063 37.4522 10.3712 37.9093C10.3712 37.9093 11.9155 44.5936 11.3885 47.2597C11.3885 47.2597 11.9534 48.3453 13.6858 47.355C13.6858 47.355 14.9099 38.7091 13.2434 36.6812C13.2434 36.6812 12.9327 34.2243 13.2151 33.4816C13.2151 33.4816 13.554 27.2058 13.7237 26.6302C13.7237 26.6302 14.484 25.3115 14.136 23.1951C13.4793 23.8174 13.1977 23.5675 13.1977 23.5675C13.0899 23.5256 12.8676 23.0499 12.8676 23.0499C11.4611 23.238 11.2017 22.7952 11.2017 22.7952C11.0739 22.3953 12.5514 22.5323 12.5514 22.5323C12.841 22.5245 12.4842 22.3521 12.4842 22.3521C10.431 22.5874 10.6936 22.2344 10.6936 22.2344C12.4706 21.6543 12.0668 21.539 12.0668 21.539C10.0921 22.48 10.4331 21.8529 10.4331 21.8529C10.5949 21.7274 11.995 20.9119 11.995 20.9119C11.7615 21.0163 11.0256 20.9119 11.0256 20.9119C11.1331 20.5147 12.2283 20.4937 12.2283 20.4937C12.3371 20.4885 13.5342 22.0777 13.5342 22.0777C13.5342 22.0777 13.3458 22.1246 13.6015 22.109C13.6335 22.1071 13.6967 22.0105 13.7832 21.8434C13.566 21.2349 13.2548 20.5824 12.8196 19.8941C12.8196 19.8941 11.539 17.8373 11.6332 17.1136C11.6332 17.1136 10.7163 16.0174 5.67942 18.5343C5.71438 19.3903 5.73199 19.978 5.71972 20.0846C5.71705 20.108 5.71171 20.1388 5.70397 20.1763C5.66688 20.3536 5.57561 20.6796 5.4574 21.0749C5.37548 22.3367 5.29595 23.6271 5.30556 23.7599C5.30556 23.7599 4.7369 24.4787 3.91766 25.8207C3.90912 25.9006 3.90085 25.9877 3.89311 26.0833C3.89044 26.1154 3.8875 26.1469 3.88457 26.1777C3.74554 27.6745 3.36554 27.4735 3.36554 27.4735C3.23425 29.0826 2.99888 28.0847 2.93431 27.7317C2.93804 27.7447 2.93537 27.6775 2.93217 27.7207C2.85318 28.8146 2.66425 28.9064 2.66425 28.9064C2.62502 28.9102 2.5447 28.8875 2.52869 28.7885C2.46358 29.2553 2.36751 29.5111 2.36751 29.5111C2.29359 29.526 2.21887 29.3206 2.15563 29.0664C1.47595 30.4731 0.773598 32.1351 0.145426 34.0246C0.145426 34.0246 -0.363195 35.1479 0.521956 37.1097C0.521956 37.1097 3.62919 45.679 3.29989 46.6504Z" fill="#DB0080"/>
</g>
<mask id="mask4_247_3474" style="mask-type:luminance" maskUnits="userSpaceOnUse" x="-30" y="-57" width="213" height="167">
<path d="M-29.1737 -56.0731H182.174V109.073H-29.1737V-56.0731Z" fill="white"/>
</mask>
<g mask="url(#mask4_247_3474)">
<path d="M12.9861 2.56126C13.0878 2.16377 13.5497 2.31543 13.5497 2.31543C13.6586 2.39287 13.7426 2.47275 13.8077 2.55289C13.6367 2.56126 13.3405 2.57124 12.9861 2.56126ZM14.6499 2.2906C14.3284 1.38257 13.6804 0.744381 13.6804 0.744381C12.6811 -0.443213 10.725 0.146401 10.725 0.146401C6.70624 1.81108 9.42814 3.12281 9.42814 3.12281L9.43561 3.07262C9.45429 2.53238 9.54929 2.13652 9.65576 1.85642C9.6611 1.9031 9.67017 1.95006 9.68432 1.99728C9.68432 1.99728 9.82762 1.64675 9.98212 1.2946C9.9888 1.28785 9.99253 1.28434 9.99253 1.28434C10.4118 2.82274 12.6915 2.93041 12.6915 2.93041C13.3864 3.7108 13.3253 3.32034 13.3253 3.32034C13.2711 3.31764 13.0693 2.90342 12.9949 2.74664C13.2537 2.7202 13.5321 2.66785 13.8315 2.58285C14.1674 3.02674 13.9238 3.46039 13.9238 3.46039C13.7354 3.85922 13.4357 3.75965 13.4357 3.75965C13.4355 3.78312 13.3712 4.47069 13.3712 4.47069C14.0346 4.46718 14.4044 4.16172 14.6043 3.88243C15.2295 4.55273 15.3675 6.20095 15.3675 6.20095C15.7424 6.50614 15.5436 7.90206 15.5436 7.90206C15.6125 7.86806 16.0488 7.09387 16.0488 7.09387C15.957 8.82898 16.722 8.92505 16.722 8.92505C16.1152 8.27499 16.3495 7.75877 16.3495 7.75877C16.4416 7.85673 16.4312 8.33139 16.5131 8.2337C16.5184 8.22696 16.5227 8.21454 16.5256 8.19673C16.5683 7.95171 16.3943 6.71797 16.4517 6.70394C16.5131 6.68883 16.7986 7.36695 16.7986 7.36695C16.9617 6.83212 16.5334 5.5803 16.5334 5.5803C16.6761 5.56411 17.2066 6.13861 17.2066 6.13861C17.2072 6.1262 17.2074 6.11379 17.2074 6.1011C17.2178 4.55003 15.0569 2.63682 14.6499 2.2906Z" fill="#DB0080"/>
</g>
<mask id="mask5_247_3474" style="mask-type:luminance" maskUnits="userSpaceOnUse" x="-30" y="-57" width="213" height="167">
<path d="M-29.1737 -56.0731H182.174V109.073H-29.1737V-56.0731Z" fill="white"/>
</mask>
<g mask="url(#mask5_247_3474)">
<path d="M26.5217 16.5134H46.0814V12.9398H26.5217V16.5134Z" fill="#DB0080"/>
</g>
<mask id="mask6_247_3474" style="mask-type:luminance" maskUnits="userSpaceOnUse" x="-30" y="-57" width="213" height="167">
<path d="M-29.1737 -56.0731H182.174V109.073H-29.1737V-56.0731Z" fill="white"/>
</mask>
<g mask="url(#mask6_247_3474)">
<path d="M21.5084 6.78776C21.201 7.15313 21.047 7.85041 21.047 8.87907V23.7419H25.2606V10.3816C25.2606 10.0567 25.3322 9.88101 25.4757 9.85375H46.0813V6.23943H22.6156C22.1852 6.23943 21.8158 6.42238 21.5084 6.78776Z" fill="#DB0080"/>
</g>
<mask id="mask7_247_3474" style="mask-type:luminance" maskUnits="userSpaceOnUse" x="-30" y="-57" width="213" height="167">
<path d="M-29.1737 -56.0731H182.174V109.073H-29.1737V-56.0731Z" fill="white"/>
</mask>
<g mask="url(#mask7_247_3474)">
<path d="M53.4933 6.23933H49.2799V23.7416H53.4933V6.23933Z" fill="#DB0080"/>
</g>
<mask id="mask8_247_3474" style="mask-type:luminance" maskUnits="userSpaceOnUse" x="-30" y="-57" width="213" height="167">
<path d="M-29.1737 -56.0731H182.174V109.073H-29.1737V-56.0731Z" fill="white"/>
</mask>
<g mask="url(#mask8_247_3474)">
<path d="M67.1174 23.7418H71.3307V9.85363H81.726V6.23958H56.6917V9.85363H67.1174V23.7418Z" fill="#DB0080"/>
</g>
<mask id="mask9_247_3474" style="mask-type:luminance" maskUnits="userSpaceOnUse" x="-30" y="-57" width="213" height="167">
<path d="M-29.1737 -56.0731H182.174V109.073H-29.1737V-56.0731Z" fill="white"/>
</mask>
<g mask="url(#mask9_247_3474)">
<path d="M89.1376 6.23933H84.9243V23.7416H89.1376V6.23933Z" fill="#DB0080"/>
</g>
<mask id="mask10_247_3474" style="mask-type:luminance" maskUnits="userSpaceOnUse" x="-30" y="-57" width="213" height="167">
<path d="M-29.1737 -56.0731H182.174V109.073H-29.1737V-56.0731Z" fill="white"/>
</mask>
<g mask="url(#mask10_247_3474)">
<path d="M96.5496 10.5441C96.5496 10.3004 96.6107 10.138 96.734 10.0568H96.8263L107.16 23.2544C107.303 23.4169 107.441 23.5388 107.575 23.62C107.708 23.7013 107.898 23.7418 108.144 23.7418H108.175V23.7822H108.759C108.779 23.7822 108.795 23.7755 108.805 23.762C108.815 23.7482 108.841 23.7418 108.882 23.7418C109.107 23.715 109.276 23.6675 109.389 23.5995C109.502 23.5323 109.64 23.4169 109.805 23.2544L120.107 10.0568H120.2C120.343 10.1652 120.415 10.3277 120.415 10.5441V23.7418H124.629V8.87914C124.629 7.85049 124.469 7.1532 124.152 6.78783C123.834 6.42246 123.46 6.2395 123.029 6.2395H119.123C118.959 6.2395 118.6 6.53768 118.047 7.13296C117.493 7.72879 116.837 8.48004 116.079 9.38672C115.32 10.2939 114.52 11.2686 113.68 12.3105C112.839 13.3529 112.055 14.3276 111.327 15.2343C110.599 16.1418 109.969 16.9063 109.436 17.5285C108.902 18.1516 108.585 18.4765 108.482 18.5032C108.379 18.4765 108.067 18.1516 107.544 17.5285C107.021 16.9063 106.391 16.1418 105.653 15.2343C104.915 14.3276 104.12 13.3459 103.269 12.2903C102.418 11.2344 101.619 10.2597 100.87 9.36621C100.122 8.47302 99.4658 7.72879 98.9019 7.13296C98.3378 6.53768 97.9743 6.2395 97.8105 6.2395H93.9046C93.4941 6.2395 93.1304 6.42246 92.8129 6.78783C92.4948 7.1532 92.336 7.85049 92.336 8.87914V23.7418H96.5496V10.5441Z" fill="#DB0080"/>
</g>
<mask id="mask11_247_3474" style="mask-type:luminance" maskUnits="userSpaceOnUse" x="-30" y="-57" width="213" height="167">
<path d="M-29.1737 -56.0731H182.174V109.073H-29.1737V-56.0731Z" fill="white"/>
</mask>
<g mask="url(#mask11_247_3474)">
<path d="M133.301 16.5134H152.861V12.9398H133.301V16.5134Z" fill="#DB0080"/>
</g>
<mask id="mask12_247_3474" style="mask-type:luminance" maskUnits="userSpaceOnUse" x="-30" y="-57" width="213" height="167">
<path d="M-29.1737 -56.0731H182.174V109.073H-29.1737V-56.0731Z" fill="white"/>
</mask>
<g mask="url(#mask12_247_3474)">
<path d="M130.963 23.498C131.496 23.6605 131.968 23.7417 132.378 23.7417H152.861V20.1276H134.101C133.978 20.1276 133.803 20.0869 133.578 20.0057C133.352 19.9245 133.126 19.8027 132.901 19.6403C132.675 19.4779 132.475 19.2817 132.301 19.0515C132.127 18.8219 132.04 18.5579 132.04 18.2595V11.7217C132.04 11.424 132.127 11.1601 132.301 10.9297C132.475 10.7 132.675 10.5033 132.901 10.3409C133.126 10.1784 133.352 10.0567 133.578 9.97548C133.803 9.89425 133.978 9.85378 134.101 9.85378H152.861V6.23945H132.378C131.968 6.23945 131.496 6.32068 130.963 6.48312C130.43 6.64557 129.933 6.89626 129.472 7.23438C129.011 7.5733 128.621 7.99966 128.303 8.51372C127.985 9.02805 127.827 9.63736 127.827 10.3409V19.6403C127.827 20.3446 127.985 20.9536 128.303 21.4677C128.621 21.9823 129.011 22.4087 129.472 22.7468C129.933 23.0857 130.43 23.3356 130.963 23.498Z" fill="#DB0080"/>
</g>
<mask id="mask13_247_3474" style="mask-type:luminance" maskUnits="userSpaceOnUse" x="-30" y="-57" width="213" height="167">
<path d="M-29.1737 -56.0731H182.174V109.073H-29.1737V-56.0731Z" fill="white"/>
</mask>
<g mask="url(#mask13_247_3474)">
<path d="M23.9109 30.2401C23.4002 30.3955 22.9246 30.6357 22.4827 30.9592C22.0413 31.2836 21.6683 31.6919 21.3643 32.1838C21.0596 32.6763 20.908 33.2591 20.908 33.933V35.9152C20.908 36.5893 21.0596 37.1725 21.3643 37.6647C21.6683 38.1571 22.0413 38.5654 22.4827 38.8892C22.9246 39.2133 23.4002 39.4527 23.9109 39.6084C24.4209 39.7638 24.8721 39.8412 25.2649 39.8412H38.9246C39.0423 39.8674 39.2088 39.913 39.4252 39.9775C39.6408 40.0423 39.8519 40.1329 40.0582 40.2495C40.2639 40.3661 40.4454 40.5153 40.6026 40.6967C40.7595 40.878 40.8382 41.0985 40.8382 41.3572V41.5127C40.8382 41.7982 40.7544 42.051 40.5879 42.2707C40.4208 42.4911 40.2247 42.6789 39.9989 42.8344C39.7732 42.9898 39.5525 43.1067 39.3369 43.1844C39.1205 43.2621 38.9636 43.3009 38.8659 43.3009H20.908V46.7604H40.5145C40.9065 46.7604 41.358 46.6827 41.8685 46.527C42.3785 46.3715 42.8545 46.1327 43.2964 45.8078C43.7378 45.4843 44.1103 45.076 44.4151 44.5835C44.719 44.0919 44.8714 43.5085 44.8714 42.8344V40.3081C44.8714 39.6604 44.719 39.0903 44.4151 38.5975C44.1103 38.1053 43.7378 37.6906 43.2964 37.3535C42.8545 37.017 42.3785 36.7704 41.8685 36.615C41.358 36.4598 40.9065 36.3818 40.5145 36.3818H26.9135C26.8151 36.3818 26.6632 36.3497 26.4572 36.2847C26.2512 36.2202 26.0401 36.1292 25.8243 36.0127C25.6081 35.8961 25.4168 35.7471 25.2502 35.5655C25.0835 35.3845 24.9898 35.1769 24.9706 34.9438C24.9706 34.7101 25.0538 34.5034 25.2206 34.3215C25.3871 34.1407 25.5787 33.9853 25.7949 33.8552C26.0105 33.726 26.2264 33.6286 26.4423 33.5635C26.6584 33.499 26.8151 33.4667 26.9135 33.4667H44.8714V30.007H25.2649C24.8721 30.007 24.4209 30.0847 23.9109 30.2401Z" fill="#DB0080"/>
</g>
<mask id="mask14_247_3474" style="mask-type:luminance" maskUnits="userSpaceOnUse" x="-30" y="-57" width="213" height="167">
<path d="M-29.1737 -56.0731H182.174V109.073H-29.1737V-56.0731Z" fill="white"/>
</mask>
<g mask="url(#mask14_247_3474)">
<path d="M47.9329 33.4667H57.9126V46.7604H61.9458V33.4667H71.896V30.007H47.9329V33.4667Z" fill="#DB0080"/>
</g>
<mask id="mask15_247_3474" style="mask-type:luminance" maskUnits="userSpaceOnUse" x="-30" y="-57" width="213" height="167">
<path d="M-29.1737 -56.0731H182.174V109.073H-29.1737V-56.0731Z" fill="white"/>
</mask>
<g mask="url(#mask15_247_3474)">
<path d="M94.9172 41.5128C94.9172 41.7983 94.8337 42.0509 94.6672 42.2708C94.5004 42.4913 94.3037 42.6788 94.0782 42.8343C93.8528 42.99 93.6318 43.1065 93.4159 43.1842C93.1995 43.262 93.0429 43.3011 92.9449 43.3011H80.9632C80.865 43.3011 80.7028 43.262 80.4776 43.1842C80.2518 43.1065 80.0308 42.99 79.8152 42.8343C79.5991 42.6788 79.4077 42.4913 79.2412 42.2708C79.0742 42.0509 78.9907 41.7983 78.9907 41.5128V35.2545C78.9907 34.9696 79.0742 34.717 79.2412 34.4965C79.4077 34.2769 79.5991 34.0885 79.8152 33.9328C80.0308 33.7774 80.2518 33.6608 80.4776 33.5831C80.7028 33.5054 80.865 33.4668 80.9632 33.4668H92.9449C93.0429 33.4668 93.1995 33.5054 93.4159 33.5831C93.6318 33.6608 93.8528 33.7774 94.0782 33.9328C94.3037 34.0885 94.5004 34.2769 94.6672 34.4965C94.8337 34.717 94.9172 34.9696 94.9172 35.2545V41.5128ZM97.3608 30.9594C96.9093 30.6356 96.4335 30.3957 95.9331 30.2403C95.4325 30.0845 94.9762 30.0068 94.5642 30.0068H79.3146C78.9221 30.0068 78.4706 30.0845 77.9606 30.2403C77.4498 30.3957 76.9743 30.6356 76.5327 30.9594C76.091 31.2837 75.7182 31.6918 75.414 32.184C75.1093 32.6764 74.9577 33.2593 74.9577 33.9328V42.8343C74.9577 43.5086 75.1093 44.092 75.414 44.5837C75.7182 45.0761 76.091 45.4844 76.5327 45.808C76.9743 46.1326 77.4498 46.3717 77.9606 46.5271C78.4706 46.6825 78.9221 46.7603 79.3146 46.7603H94.5642C94.9762 46.7603 95.4325 46.6825 95.9331 46.5271C96.4335 46.3717 96.9093 46.1326 97.3608 45.808C97.812 45.4844 98.1896 45.0761 98.4941 44.5837C98.7983 44.092 98.9504 43.5086 98.9504 42.8343V33.9328C98.9504 33.2593 98.7983 32.6764 98.4941 32.184C98.1896 31.6918 97.812 31.2837 97.3608 30.9594Z" fill="#DB0080"/>
</g>
<mask id="mask16_247_3474" style="mask-type:luminance" maskUnits="userSpaceOnUse" x="-30" y="-57" width="213" height="167">
<path d="M-29.1737 -56.0731H182.174V109.073H-29.1737V-56.0731Z" fill="white"/>
</mask>
<g mask="url(#mask16_247_3474)">
<path d="M121.589 41.3185C121.981 41.3185 122.432 41.2408 122.943 41.0854C123.453 40.9299 123.934 40.6903 124.385 40.3662C124.837 40.0424 125.214 39.6344 125.519 39.1417C125.823 38.6495 125.975 38.0666 125.975 37.3925V33.9328C125.975 33.2593 125.823 32.6764 125.519 32.1837C125.214 31.6918 124.837 31.2835 124.385 30.9591C123.934 30.6356 123.453 30.3954 122.943 30.24C122.432 30.0845 121.981 30.0068 121.589 30.0068H103.484C103.091 30.0068 102.748 30.1817 102.453 30.5317C102.159 30.8814 102.012 31.549 102.012 32.5334V46.7603H106.045V33.9717C106.045 33.6608 106.114 33.4924 106.251 33.4665H120.028C120.146 33.4924 120.313 33.551 120.529 33.6414C120.745 33.7326 120.956 33.8554 121.162 34.0105C121.368 34.166 121.549 34.3476 121.706 34.5548C121.863 34.7626 121.942 34.9955 121.942 35.2543V36.0708C121.942 36.3563 121.858 36.6089 121.692 36.8288C121.525 37.0496 121.328 37.2368 121.103 37.3925C120.877 37.548 120.656 37.6645 120.441 37.7423C120.225 37.82 120.068 37.8588 119.97 37.8588H107.252V41.3574L119.499 46.7603H126.682L115.142 41.3185H121.589Z" fill="#DB0080"/>
</g>
<mask id="mask17_247_3474" style="mask-type:luminance" maskUnits="userSpaceOnUse" x="-30" y="-57" width="213" height="167">
<path d="M-29.1737 -56.0731H182.174V109.073H-29.1737V-56.0731Z" fill="white"/>
</mask>
<g mask="url(#mask17_247_3474)">
<path d="M133.394 30.007C133.001 30.007 132.549 30.0847 132.039 30.2401C131.529 30.3955 131.053 30.6357 130.612 30.9592C130.17 31.2836 129.797 31.6919 129.493 32.1838C129.188 32.6765 129.037 33.2594 129.037 33.933V42.8344C129.037 43.5085 129.188 44.0919 129.493 44.5838C129.797 45.0763 130.17 45.4843 130.612 45.8081C131.053 46.1327 131.529 46.3718 132.039 46.5272C132.549 46.6827 133.001 46.7604 133.394 46.7604H153V43.3012H135.042C134.924 43.3012 134.758 43.2621 134.542 43.1844C134.326 43.1067 134.11 42.9898 133.894 42.8344C133.678 42.6789 133.487 42.4914 133.32 42.2707C133.153 42.051 133.07 41.7982 133.07 41.5129V35.2544C133.07 34.9697 133.153 34.7171 133.32 34.4967C133.487 34.2767 133.678 34.0887 133.894 33.933C134.11 33.7775 134.326 33.6609 134.542 33.5832C134.758 33.5055 134.924 33.4667 135.042 33.4667H153V30.007H133.394Z" fill="#DB0080"/>
</g>
<mask id="mask18_247_3474" style="mask-type:luminance" maskUnits="userSpaceOnUse" x="-30" y="-57" width="213" height="167">
<path d="M-29.1737 -56.0731H182.174V109.073H-29.1737V-56.0731Z" fill="white"/>
</mask>
<g mask="url(#mask18_247_3474)">
<path d="M134.277 39.8412H153V36.4206H134.277V39.8412Z" fill="#DB0080"/>
</g>
</g>
<defs>
<clipPath id="clip0_247_3474">
<rect width="153" height="53" fill="white"/>
</clipPath>
</defs>
</svg>
