<svg width="48" height="48" viewBox="0 0 48 48" fill="none" xmlns="http://www.w3.org/2000/svg">
<path d="M6 42.5V6H42.5V42.5H6Z" fill="#FFD600"/>
<path d="M29.3435 32.8C30.0451 33.9396 30.8075 35.0315 32.4226 35.0315C33.7792 35.0315 34.491 34.3573 34.491 33.4245C34.491 32.3082 33.7549 31.9118 32.2624 31.2619L31.4442 30.9131C29.0829 29.9114 27.5124 28.6562 27.5124 26.0049C27.5124 23.5614 29.383 21.7019 32.306 21.7019C34.3876 21.7019 35.883 22.4228 36.9618 24.3107L34.4129 25.94C33.8522 24.9383 33.2459 24.5439 32.306 24.5439C31.3469 24.5439 30.7396 25.1492 30.7396 25.94C30.7396 26.9174 31.3479 27.3128 32.7522 27.9181L33.5704 28.2669C36.3535 29.4521 37.923 30.6627 37.923 33.384C37.923 36.3161 35.6073 37.9231 32.4987 37.9231C29.458 37.9231 27.7314 36.3972 26.7702 34.5084L29.3435 32.8ZM17.5965 32.8831C18.1096 33.8017 18.8893 34.5084 20.0106 34.5084C21.0833 34.5084 21.7008 34.0846 21.7008 32.437V21.7009H25.0801V32.9561C25.0801 36.3699 23.0999 37.9231 20.2083 37.9231C17.5955 37.9231 15.7097 36.1529 14.9412 34.5084L17.5965 32.8831Z" fill="#000001"/>
</svg>
