<svg width="48" height="48" viewBox="0 0 48 48" fill="none" xmlns="http://www.w3.org/2000/svg">
<path d="M42.2 22.1L25.9 5.8C25.4 5.3 24.7 5 24 5C23.3 5 22.6 5.3 22.1 5.8L18.6 9.3L22.7 13.4C23.1 13.2 23.5 13.1 24 13.1C25.7 13.1 27 14.4 27 16.1C27 16.6 26.9 17 26.7 17.4L30.7 21.4C31.1 21.2 31.5 21.1 32 21.1C33.7 21.1 35 22.4 35 24.1C35 25.8 33.7 27.1 32 27.1C30.3 27.1 29 25.8 29 24.1C29 23.6 29.1 23.2 29.3 22.8L25.3 18.8C25.2 18.8 25.1 18.9 25 18.9V29.3C26.2 29.7 27 30.8 27 32.1C27 33.8 25.7 35.1 24 35.1C22.3 35.1 21 33.8 21 32.1C21 30.8 21.8 29.7 23 29.3V18.8C21.8 18.4 21 17.3 21 16C21 15.5 21.1 15.1 21.3 14.7L17.2 10.6L5.8 22.1C5.3 22.6 5 23.3 5 24C5 24.7 5.3 25.4 5.8 25.9L22.1 42.2C22.6 42.7 23.3 43 24 43C24.7 43 25.4 42.7 25.9 42.2L42.2 25.9C42.7 25.4 43 24.7 43 24C43 23.3 42.7 22.6 42.2 22.1Z" fill="#F4511E"/>
</svg>
